<svg width="40" height="40" viewBox="0 0 40 40" fill="none" xmlns="http://www.w3.org/2000/svg">
<circle cx="20" cy="20" r="19.5" fill="black" fill-opacity="0.2"/>
<circle cx="20" cy="20" r="19.5" stroke="url(#paint0_linear_619_582)" style="mix-blend-mode:overlay"/>
<path fill-rule="evenodd" clip-rule="evenodd" d="M31 20C31 26.0751 26.0751 31 20 31C13.9249 31 9 26.0751 9 20C9 13.9249 13.9249 9 20 9C26.0751 9 31 13.9249 31 20ZM24.2639 14.4437C25.0727 14.1327 25.8673 14.9273 25.5563 15.7361L23.1475 21.9988C22.9444 22.527 22.527 22.9444 21.9988 23.1475L15.7361 25.5563C14.9273 25.8673 14.1327 25.0727 14.4437 24.2639L16.8525 18.0012C17.0556 17.473 17.473 17.0556 18.0012 16.8525L24.2639 14.4437ZM20 22C21.1046 22 22 21.1046 22 20C22 18.8954 21.1046 18 20 18C18.8954 18 18 18.8954 18 20C18 21.1046 18.8954 22 20 22Z" fill="white" style="mix-blend-mode:overlay"/>
<defs>
<linearGradient id="paint0_linear_619_582" x1="1" y1="4.5" x2="42.5" y2="36.5" gradientUnits="userSpaceOnUse">
<stop stop-color="#E8A9FF"/>
<stop offset="1" stop-color="#53E1FF"/>
</linearGradient>
</defs>
</svg>
