<svg width="33" height="32" viewBox="0 0 33 32" fill="none" xmlns="http://www.w3.org/2000/svg">
<path d="M9.96191 14.709C9.96191 14.9482 10.0713 15.1396 10.2559 15.2354V16.083C9.91406 16.2607 9.72949 16.6436 9.76367 17.1152C9.87305 17.9492 10.4814 19.3574 11.2061 20.499C12.2109 22.1602 12.8125 22.748 13.4688 22.748C14.3506 22.748 14.7676 21.9277 14.2754 21.0596L11.7324 16.5547C11.541 16.2197 11.2676 16.0352 10.9258 15.9941V15.1875C11.0625 15.0918 11.1445 14.9209 11.1445 14.709C11.1719 11.0723 13.373 8.74121 16.9072 8.74121C20.4414 8.74121 22.6357 11.0723 22.6631 14.709C22.6631 14.9209 22.7451 15.0918 22.8887 15.1875V15.9941C22.5469 16.0352 22.2666 16.2197 22.082 16.5547L19.5322 21.0596C19.04 21.9277 19.4639 22.748 20.3389 22.748C20.9951 22.748 21.5967 22.1602 22.6016 20.499C23.3262 19.3574 23.9346 17.9492 24.0439 17.1152C24.0781 16.6436 23.8936 16.2607 23.5518 16.083V15.2354C23.7363 15.1396 23.8457 14.9482 23.8457 14.709C23.8457 10.457 21.2002 7.55176 16.9072 7.55176C12.6074 7.55176 9.96191 10.457 9.96191 14.709ZM12.9014 11.2227C14.0088 10.6143 15.3281 10.3135 16.9072 10.3203C18.4795 10.3135 19.7988 10.6143 20.9062 11.2227C20.0244 10.0469 18.7188 9.43848 16.9072 9.43848C15.0889 9.43848 13.7832 10.0469 12.9014 11.2227ZM18.2266 21.3467C18.5068 21.5039 18.7666 21.4355 18.917 21.1689L21.7334 16.1992C21.8838 15.9463 21.8154 15.6797 21.5352 15.5225C21.0703 15.2559 20.5166 15.4404 20.2158 15.96L17.9326 19.9932C17.6387 20.5059 17.7686 21.0869 18.2266 21.3467ZM15.5811 21.3467C16.0391 21.0869 16.1689 20.5059 15.875 19.9932L13.5918 15.96C13.2979 15.4404 12.7441 15.2559 12.2793 15.5225C11.9922 15.6797 11.9307 15.9463 12.0742 16.1992L14.8906 21.1689C15.041 21.4355 15.3008 21.5039 15.5811 21.3467Z" fill="white" fill-opacity="0.6"/>
</svg>
