<svg width="32" height="32" viewBox="0 0 32 32" fill="none" xmlns="http://www.w3.org/2000/svg">
<path d="M16 16.8555C17.3877 16.8555 18.3994 15.8232 18.3994 14.3057V9.70508C18.3994 8.19434 17.3877 7.15527 16 7.15527C14.6123 7.15527 13.6006 8.19434 13.6006 9.70508V14.3057C13.6006 15.8232 14.6123 16.8555 16 16.8555ZM10.8115 14.4629C10.8115 17.2725 12.6777 19.2002 15.3779 19.46V20.8613H12.8623C12.5137 20.8613 12.2197 21.1484 12.2197 21.5039C12.2197 21.8525 12.5137 22.1396 12.8623 22.1396H19.1377C19.4932 22.1396 19.7871 21.8525 19.7871 21.5039C19.7871 21.1484 19.4932 20.8613 19.1377 20.8613H16.6289V19.46C19.3223 19.2002 21.1953 17.2725 21.1953 14.4629V13.1094C21.1953 12.7539 20.9082 12.4736 20.5527 12.4736C20.1973 12.4736 19.9033 12.7539 19.9033 13.1094V14.415C19.9033 16.7393 18.3311 18.2773 16 18.2773C13.6689 18.2773 12.0967 16.7393 12.0967 14.415V13.1094C12.0967 12.7539 11.8096 12.4736 11.4541 12.4736C11.0986 12.4736 10.8115 12.7539 10.8115 13.1094V14.4629Z" fill="white" fill-opacity="0.6"/>
</svg>
