<svg width="250" height="9" viewBox="0 0 250 9" fill="none" xmlns="http://www.w3.org/2000/svg">
<path d="M1 4.69444V4.30556M5 4.88889V4.69444M9 5.27778V3.72222M13 6.05556V2.94444M17 6.83333V2.16667M21 8V1M25 6.44444V2.55556M29 6.25V2.75M33 5.66667V3.33333M37 5.08333V3.91667M41 4.69444V4.30556M45 4.69444V4.30556M49 4.69444V4.30556M53 4.69444V4.30556M57 5.47222V3.52778M61 6.44444V2.55556M65 6.05556V2.94444M69 6.83333V2.16667M73 8V1M77 7.41667V1.58333M81 6.25V2.75M85 5.66667V3.33333M89 5.08333V3.91667M93 4.69444V4.30556M97 4.69444V4.30556M101 4.69444V4.30556M105 4.69444V4.30556M109 4.88889V4.11111M113 5.27778V3.72222M117 6.05556V2.94444M121 6.83333V2.16667M125 8V1M129 6.44444V2.55556M133 6.44444V2.55556M137 7.41667V1.58333M141 8V1M145 6.44444V2.55556M149 5.27778V3.72222M153 5.27778V3.72222M157 5.27778V4.29M161 5.47222V4.29M165 6.44444V4.29M169 8V4.29M173 7.41667V4.29M177 8V4.29M181 7.41667V4.29M185 8V4.29M189 6.44444V4.29M193 4.5V4.29M197 4.69444V4.30556M201 4.69444V4.30556M205 5.47222V3.52778M209 6.44444V2.55556M213 5.47222V3.52778M217 7.41667V4.29M221 6.46V4.29M225 7.41667V4.29M229 6.46V4.29M233 6.44444V2.55556M237 6.44444V2.55556M241 5.47222V3.52778M245 5.08333V3.91667M249 4.69444V4.30556" stroke="url(#paint0_linear_651_504)" stroke-width="1.5" stroke-linecap="round"/>
<defs>
<linearGradient id="paint0_linear_651_504" x1="15" y1="1" x2="249" y2="1" gradientUnits="userSpaceOnUse">
<stop stop-color="#00E9FF"/>
<stop offset="1" stop-color="#FF00D8"/>
</linearGradient>
</defs>
</svg>
